<?xml version="1.0" encoding="UTF-8"?>
<svg id="Logo_Mark" xmlns="http://www.w3.org/2000/svg" version="1.1" viewBox="0 0 239.2 239.2">
  <!-- Generator: Adobe Illustrator 29.8.1, SVG Export Plug-In . SVG Version: 2.1.1 Build 2)  -->
  <defs>
    <style>
      .st0 {
        fill: #231f20;
      }
    </style>
  </defs>
  <path class="st0" d="M212,119.5c0-51-41.4-92.3-92.4-92.3S27.2,68.5,27.2,119.6s41.4,92.4,92.4,92.4,37.9-6.2,52.9-16.7l33.3,11.7c1.4.5,3,.3,4.2-.6,1.2-.9,1.9-2.3,1.9-3.8v-83.2h0ZM169,135.2c-6.6,20.9-26.2,36.1-49.2,36.1s-51.7-23.1-51.7-51.7,23.1-51.7,51.7-51.7,42.5,15.1,49.2,35.9c.3.8.1,1.6-.4,2.3s-1.3,1.1-2.1,1.1h-18.3c-1.4,0-2.7-.7-3.4-2-5-8.7-14.3-14.6-25-14.6-15.9,0-28.9,12.9-28.9,28.9s12.9,28.9,28.9,28.9,20.1-5.9,25.1-14.7c.7-1.2,2-2,3.4-2h18.3c.8,0,1.6.4,2.1,1.1.5.7.6,1.5.4,2.3h0Z"/>
</svg>