<?xml version="1.0" encoding="utf-8"?>
<!-- Generator: Adobe Illustrator 30.3.0, SVG Export Plug-In . SVG Version: 9.03 Build 0)  -->
<svg version="1.0" id="Layer_1" xmlns="http://www.w3.org/2000/svg" xmlns:xlink="http://www.w3.org/1999/xlink" x="0px" y="0px"
	 viewBox="0 0 79.73 79.73" style="enable-background:new 0 0 79.73 79.73;" xml:space="preserve">
<style type="text/css">
	.st0{fill:#C4242B;}
</style>
<path class="st0" d="M79.73,39.82C79.7,17.82,61.86,0,39.86,0C17.85,0,0,17.85,0,39.86c0,22.02,17.85,39.86,39.86,39.86
	c8.49,0,16.35-2.66,22.82-7.19l14.38,5.05c0.61,0.21,1.29,0.12,1.82-0.26c0.53-0.38,0.84-0.98,0.84-1.63L79.73,39.82L79.73,39.82z
	 M61.15,46.59c-2.85,9.01-11.28,15.55-21.24,15.55c-12.3,0-22.28-9.97-22.28-22.28c0-12.3,9.97-22.28,22.28-22.28
	c9.94,0,18.35,6.51,21.22,15.5c0.11,0.34,0.05,0.71-0.16,1c-0.21,0.29-0.55,0.46-0.9,0.46h-7.91c-0.6,0-1.16-0.32-1.46-0.85
	c-2.14-3.75-6.17-6.28-10.8-6.28c-6.87,0-12.45,5.57-12.45,12.45c0,6.87,5.57,12.45,12.45,12.45c4.64,0,8.68-2.55,10.82-6.32
	c0.3-0.53,0.86-0.85,1.46-0.85h7.89c0.36,0,0.69,0.17,0.9,0.46C61.19,45.88,61.25,46.25,61.15,46.59z"/>
</svg>
