<svg enable-background="new 0 0 264.58 71.55" viewBox="0 0 264.58 71.55" xmlns="http://www.w3.org/2000/svg" xmlns:xlink="http://www.w3.org/1999/xlink"><a xlink:href="73.33518"><path d="m28.94 41.11c-.51 0-.97.27-1.22.71-1.79 3.16-5.17 5.29-9.06 5.29-5.76 0-10.42-4.67-10.42-10.42 0-5.76 4.67-10.42 10.42-10.42 3.87 0 7.25 2.12 9.04 5.26.25.44.72.71 1.22.71h6.62c.3 0 .58-.14.76-.38s.23-.55.14-.84c-2.4-7.53-9.45-12.98-17.77-12.98-10.32 0-18.67 8.35-18.67 18.66 0 10.3 8.35 18.65 18.66 18.65 8.34 0 15.4-5.47 17.79-13.02.09-.28.04-.59-.14-.84-.18-.24-.46-.38-.76-.38z" fill="#C4242B"/></a><path d="m79.04 36.68c-.01-10.29-8.36-18.64-18.66-18.64s-18.66 8.35-18.66 18.66c0 10.3 8.35 18.66 18.66 18.66 3.97 0 7.65-1.25 10.68-3.36l6.73 2.36c.29.1.6.06.85-.12s.39-.46.39-.76zm-18.66 10.44c-5.76 0-10.42-4.67-10.42-10.42 0-5.76 4.67-10.42 10.42-10.42 5.76 0 10.42 4.67 10.42 10.42s-4.66 10.42-10.42 10.42z" fill="#C4242B"/><path d="m123.85 36.7c0-10.3-8.35-18.66-18.66-18.66-3.97 0-7.65 1.25-10.68 3.36l-6.73-2.36c-.29-.1-.6-.06-.85.12s-.39.46-.39.76v16.75.04 33.9c0 .52.42.94.94.94h6.36c.52 0 .94-.42.94-.94v-18.44c2.98 2.01 6.56 3.18 10.42 3.18 10.3 0 18.65-8.35 18.65-18.65zm-18.66 10.42c-5.76 0-10.42-4.67-10.42-10.42 0-5.76 4.67-10.42 10.42-10.42 5.76 0 10.42 4.67 10.42 10.42s-4.66 10.42-10.42 10.42z" fill="#C4242B"/><a xlink:href="73.33518"><path d="m204.72 19.54c0-.52-.42-.94-.94-.94h-6.37c-.52 0-.94.42-.94.94v18.76c-.02 4.87-3.98 8.83-8.86 8.83-4.9 0-8.87-3.97-8.87-8.87 0-1.87 0-15.07 0-18.73 0-.52-.42-.94-.94-.94h-6.37c-.52 0-.94.42-.94.94v18.73c0 9.44 7.66 17.1 17.1 17.1 3.66 0 7.05-1.15 9.84-3.11l6.01 2.11c.29.1.6.06.85-.12s.39-.46.39-.76c.04-23.63.04.24.04-33.94z" fill="#C4242B"/></a><a xlink:href="73.33518"><path d="m220.92 53.86c0 .52-.42.94-.94.94h-6.36c-.52 0-.94-.42-.94-.94v-50.35c0-.6.38-1.13.94-1.32l6.05-2.13c.29-.1.6-.06.85.12s.4.46.4.76z" fill="#C4242B"/></a><path d="m264.58 36.7c0-10.3-8.35-18.66-18.66-18.66-10.3 0-18.66 8.35-18.66 18.66 0 10.3 8.35 18.66 18.66 18.66 6.85 0 12.85-3.7 16.09-9.21.17-.29.17-.65.01-.94-.17-.29-.48-.47-.81-.47h-7.86c-.49 0-.96.15-1.36.44-1.71 1.22-3.8 1.94-6.06 1.94-4.41 0-8.17-2.74-9.7-6.6-.06-.14-.04-.31.05-.44s.23-.2.39-.2h26.84c.47 0 .87-.35.93-.82.09-.77.14-1.56.14-2.36zm-18.65-10.43c4.16 0 7.74 2.44 9.42 5.96.07.14.06.32-.03.45-.09.14-.23.22-.4.22h-17.99c-.16 0-.31-.08-.4-.22s-.1-.31-.03-.45c1.68-3.52 5.27-5.96 9.43-5.96z" fill="#C4242B"/><a xlink:href="73.33518"><path d="m129.4 42.5c-.3 0-.59.15-.76.39-.18.25-.22.56-.12.85 2.06 5.98 9.32 11.59 17.76 11.59 10.46 0 17.94-5.91 17.94-12.76 0-14.81-24.81-6.81-24.81-13.61 0-1.75 2.19-3.58 6.89-3.58 3.35 0 6.69 1.2 8.08 3.51.25.42.71.68 1.21.68h6.98c.31 0 .59-.15.77-.4.17-.25.22-.57.11-.86-1.46-3.9-5.94-10.31-17.14-10.31-9.89 0-16.53 5.86-16.53 12.36 0 14.4 24.82 6.5 24.82 13.77 0 1.81-2.02 3.69-7.44 3.69-4.8 0-8.11-1.83-9.46-4.55-.24-.48-.73-.78-1.26-.78h-7.04z" fill="#C4242B"/></a></svg>