<?xml version="1.0" encoding="utf-8"?>
<!-- Generator: Adobe Illustrator 28.0.0, SVG Export Plug-In . SVG Version: 6.00 Build 0)  -->
<svg version="1.1" xmlns="http://www.w3.org/2000/svg" xmlns:xlink="http://www.w3.org/1999/xlink" x="0px" y="0px"
	 viewBox="0 0 312.24 312.24" style="enable-background:new 0 0 312.24 312.24;" xml:space="preserve">
<style type="text/css">
	.st0{fill:#B90021;}
</style>
<g id="full-cmyk">
</g>
<g id="black-cmyk">
</g>
<g id="white-cmyk">
</g>
<g id="invert-cmyk">
</g>
<g id="gray-cmyk">
</g>
<g id="pmsc-cmyk">
	<g>
		<path id="fullLogo_6_" class="st0" d="M312.24,155.95C312.14,69.8,242.29,0,156.12,0C69.9,0,0,69.9,0,156.12
			c0,86.22,69.9,156.12,156.12,156.12c33.25,0,64.05-10.43,89.37-28.14l56.33,19.77c2.4,0.84,5.05,0.47,7.12-1
			c2.07-1.47,3.3-3.85,3.3-6.39L312.24,155.95L312.24,155.95z M239.48,182.48c-11.18,35.3-44.18,60.89-83.18,60.89
			c-48.19,0-87.25-39.06-87.25-87.25c0-48.19,39.06-87.25,87.25-87.25c38.92,0,71.88,25.49,83.12,60.69
			c0.43,1.33,0.19,2.79-0.64,3.91c-0.82,1.13-2.14,1.8-3.54,1.8h-30.96c-2.35,0-4.53-1.27-5.7-3.31
			c-8.4-14.67-24.16-24.58-42.28-24.58c-26.92,0-48.75,21.82-48.75,48.75c0,26.92,21.82,48.75,48.75,48.75
			c18.19,0,34.01-9.99,42.38-24.75c1.17-2.06,3.35-3.33,5.72-3.33h30.91c1.4,0,2.71,0.67,3.53,1.79
			C239.66,179.7,239.9,181.15,239.48,182.48z"/>
	</g>
</g>
</svg>
